# Blender v3.6.0 OBJ File: ''
# www.blender.org
mtllib assembler_main.mtl
o Cube_Cube.001
v -1.000000 0.250000 -1.000000
v -1.000000 -0.000000 -1.000000
v -1.000000 0.000000 2.000000
v 2.000000 0.250000 -1.000000
v 2.000000 -0.000000 -1.000000
v 2.000000 0.250000 2.000000
v 2.000000 0.000000 2.000000
v -1.000000 0.250000 2.000000
v 1.750000 0.500000 1.750000
v -0.750000 0.500000 1.750000
v -0.750000 0.500000 -0.750000
v -0.750000 1.000000 -0.750000
v 1.750000 1.000000 -0.750000
v 2.500000 1.000000 -0.500000
v 2.500000 -0.000000 -0.500000
v 2.000000 -0.000000 -0.500000
v 2.500000 0.125000 -0.375000
v 2.500000 0.125000 0.375000
v 1.500000 0.750000 0.250000
v 1.500000 0.250000 0.250000
v 2.000000 0.000000 0.500000
v 2.500000 0.000000 0.500000
v 2.000000 1.000000 -0.500000
v 1.500000 0.750000 -0.250000
v 2.000000 1.000000 0.500000
v 1.500000 0.250000 -0.250000
v 2.000000 0.312500 0.187500
v 2.000000 0.687500 0.187500
v 2.500000 1.000000 0.500000
v 2.500000 0.875000 0.375000
v 2.500000 0.875000 -0.375000
v 2.000000 0.312500 -0.187500
v 2.000000 0.687500 -0.187500
v -1.000000 0.000000 0.500000
v -1.500000 0.000000 0.500000
v -1.500000 1.000000 0.500000
v -1.500000 0.125000 1.375000
v -1.500000 0.125000 0.625000
v -1.000000 0.000000 1.500000
v -0.500000 0.250000 1.250000
v -0.500000 0.750000 1.250000
v -1.500000 0.000000 1.500000
v -0.500000 0.750000 0.750000
v -1.000000 1.000000 0.500000
v -1.000000 1.000000 1.500000
v -0.500000 0.250000 0.750000
v -1.000000 0.687500 1.187500
v -1.000000 0.312500 1.187500
v -1.500000 0.875000 0.625000
v -1.500000 0.875000 1.375000
v -1.500000 1.000000 1.500000
v -1.000000 0.312500 0.812500
v -1.000000 0.687500 0.812500
v 1.156250 0.343750 -0.650000
v 1.156250 0.343750 -1.500000
v 1.156250 0.656250 -1.500000
v 1.171875 0.328125 -0.650000
v 0.828125 0.328125 -0.650000
v 0.843750 0.656250 -0.650000
v 0.843750 0.656250 -1.500000
v 0.843750 0.343750 -1.500000
v 1.156250 0.656250 -0.650000
v 0.843750 0.343750 -0.650000
v 1.171875 0.328125 -0.500000
v 0.828125 0.328125 -0.500000
v 0.828125 0.671875 -0.650000
v 1.171875 0.671875 -0.650000
v 0.828125 0.671875 -0.500000
v 1.171875 0.671875 -0.500000
v 0.156250 0.343750 -0.650000
v 0.156250 0.343750 -1.500000
v 0.156250 0.656250 -1.500000
v 0.171875 0.328125 -0.650000
v -0.171875 0.328125 -0.650000
v -0.156250 0.656250 -0.650000
v -0.156250 0.656250 -1.500000
v -0.156250 0.343750 -1.500000
v 0.156250 0.656250 -0.650000
v -0.156250 0.343750 -0.650000
v 0.171875 0.328125 -0.500000
v -0.171875 0.328125 -0.500000
v -0.171875 0.671875 -0.650000
v 0.171875 0.671875 -0.650000
v -0.171875 0.671875 -0.500000
v 0.171875 0.671875 -0.500000
v 0.156250 0.656250 2.500000
v 0.156250 0.343750 2.500000
v 0.156250 0.343750 1.650000
v -0.171875 0.328125 1.650000
v 0.171875 0.328125 1.650000
v -0.156250 0.343750 2.500000
v -0.156250 0.656250 2.500000
v -0.156250 0.656250 1.650000
v 0.156250 0.656250 1.650000
v -0.156250 0.343750 1.650000
v -0.171875 0.328125 1.500000
v 0.171875 0.328125 1.500000
v 0.171875 0.671875 1.650000
v -0.171875 0.671875 1.650000
v 0.171875 0.671875 1.500000
v -0.171875 0.671875 1.500000
v 1.156250 0.656250 2.500000
v 1.156250 0.343750 2.500000
v 1.156250 0.343750 1.650000
v 0.828125 0.328125 1.650000
v 1.171875 0.328125 1.650000
v 0.843750 0.343750 2.500000
v 0.843750 0.656250 2.500000
v 0.843750 0.656250 1.650000
v 1.156250 0.656250 1.650000
v 0.843750 0.343750 1.650000
v 0.828125 0.328125 1.500000
v 1.171875 0.328125 1.500000
v 1.171875 0.671875 1.650000
v 0.828125 0.671875 1.650000
v 1.171875 0.671875 1.500000
v 0.828125 0.671875 1.500000
v 1.750000 1.000000 1.750000
v 1.562500 1.500000 1.562500
v -0.562500 1.500000 1.562500
v -0.750000 1.000000 1.750000
v 1.750000 0.500000 -0.750000
v 0.456994 1.500000 1.403125
v -0.562500 1.500000 -0.562500
v 1.562500 1.500000 -0.562500
v -0.403125 1.500000 1.403125
v -0.403125 1.350000 1.403125
v -0.403125 1.350000 -0.403125
v 0.543006 1.500000 -0.403125
v -0.403125 1.500000 -0.403125
v 1.403125 1.500000 -0.403125
v 1.403125 1.500000 1.403125
v 1.403125 1.350000 -0.403125
v 1.403125 1.350000 1.403125
v 0.543006 1.500000 1.403125
v 0.456994 1.500000 -0.403125
v -0.317113 1.500000 -0.403125
v -0.317113 1.750000 -0.403125
v -0.231101 1.750000 -0.403125
v -0.145089 1.500000 -0.403125
v -0.145089 1.750000 -0.403125
v -0.059078 1.750000 -0.403125
v 0.026934 1.500000 -0.403125
v 0.026934 1.750000 -0.403125
v 0.112946 1.750000 -0.403125
v 0.198958 1.500000 -0.403125
v 0.198958 1.750000 -0.403125
v 0.284970 1.750000 -0.403125
v 0.370982 1.500000 -0.403125
v 0.370982 1.750000 -0.403125
v 0.456994 1.750000 -0.403125
v 0.543006 1.750000 -0.403125
v 0.629018 1.750000 -0.403125
v 0.715030 1.500000 -0.403125
v 0.715030 1.750000 -0.403125
v 0.801042 1.750000 -0.403125
v 0.887054 1.500000 -0.403125
v 0.887054 1.750000 -0.403125
v 0.973065 1.750000 -0.403125
v 1.059077 1.500000 -0.403125
v 1.059077 1.750000 -0.403125
v 1.145089 1.750000 -0.403125
v 1.231101 1.500000 -0.403125
v 1.231101 1.750000 -0.403125
v 1.317113 1.750000 -0.403125
v 1.231101 2.000000 -0.153125
v 1.317113 2.000000 -0.153125
v 1.059077 2.000000 -0.153125
v 1.145089 2.000000 -0.153125
v 0.887054 2.000000 -0.153125
v 0.973065 2.000000 -0.153125
v 0.715030 2.000000 -0.153125
v 0.801042 2.000000 -0.153125
v 0.543006 2.000000 -0.153125
v 0.629018 2.000000 -0.153125
v 0.370982 2.000000 -0.153125
v 0.456994 2.000000 -0.153125
v 0.198958 2.000000 -0.153125
v 0.284970 2.000000 -0.153125
v 0.026934 2.000000 -0.153125
v 0.112946 2.000000 -0.153125
v -0.145089 2.000000 -0.153125
v -0.059078 2.000000 -0.153125
v -0.317113 2.000000 -0.153125
v -0.231101 2.000000 -0.153125
v -0.231101 1.750000 1.403125
v -0.231101 2.000000 1.153125
v -0.317113 2.000000 1.153125
v -0.059077 1.750000 1.403125
v -0.059077 2.000000 1.153125
v -0.145089 2.000000 1.153125
v 0.112946 1.500000 1.403125
v 0.112946 1.750000 1.403125
v 0.026935 1.750000 1.403125
v -0.059077 1.500000 1.403125
v -0.145089 1.750000 1.403125
v -0.231101 1.500000 1.403125
v -0.317113 1.750000 1.403125
v 0.284970 1.500000 1.403125
v 0.284970 1.750000 1.403125
v 0.198958 1.750000 1.403125
v 0.456994 1.750000 1.403125
v 0.370982 1.750000 1.403125
v 0.629018 1.500000 1.403125
v 0.629018 1.750000 1.403125
v 0.543006 1.750000 1.403125
v 0.801042 1.500000 1.403125
v 0.801042 1.750000 1.403125
v 0.715030 1.750000 1.403125
v 0.973066 1.500000 1.403125
v 0.973066 1.750000 1.403125
v 0.887054 1.750000 1.403125
v 1.145089 1.500000 1.403125
v 1.145089 1.750000 1.403125
v 1.059078 1.750000 1.403125
v 1.317113 1.500000 1.403125
v 1.317113 1.750000 1.403125
v 1.231101 1.750000 1.403125
v 1.317113 2.000000 1.153125
v 1.231101 2.000000 1.153125
v 1.145089 2.000000 1.153125
v 1.059078 2.000000 1.153125
v 0.973066 2.000000 1.153125
v 0.887054 2.000000 1.153125
v 0.801042 2.000000 1.153125
v 0.715030 2.000000 1.153125
v 0.629018 2.000000 1.153125
v 0.543006 2.000000 1.153125
v 0.456994 2.000000 1.153125
v 0.370982 2.000000 1.153125
v 0.284970 2.000000 1.153125
v 0.198958 2.000000 1.153125
v 0.112946 2.000000 1.153125
v 0.026935 2.000000 1.153125
v 2.416667 0.750000 -0.600000
v 2.416667 0.250000 -0.600000
v 2.166667 0.500000 -0.600000
v 2.416667 0.750000 0.600000
v 2.166667 0.500000 0.600000
v 2.416667 0.250000 0.600000
v -1.083333 0.750000 0.400000
v -1.083333 0.250000 0.400000
v -1.333333 0.500000 0.400000
v -1.083333 0.750000 1.600000
v -1.333333 0.500000 1.600000
v -1.083333 0.250000 1.600000
v -0.317113 1.500000 1.403125
v 1.231101 1.500000 1.403125
v 1.059078 1.500000 1.403125
v 0.887054 1.500000 1.403125
v 0.715030 1.500000 1.403125
v 0.370982 1.500000 1.403125
v 0.198958 1.500000 1.403125
v 0.026935 1.500000 1.403125
v -0.145089 1.500000 1.403125
v 1.317113 1.500000 -0.403125
v -0.231101 1.500000 -0.403125
v -0.059078 1.500000 -0.403125
v 0.112946 1.500000 -0.403125
v 0.284970 1.500000 -0.403125
v 0.629018 1.500000 -0.403125
v 0.801042 1.500000 -0.403125
v 0.973065 1.500000 -0.403125
v 1.145089 1.500000 -0.403125
vt 0.576309 0.460125
vt 0.576309 0.482085
vt 0.312788 0.482085
vt 0.281091 0.465560
vt 0.281091 0.487663
vt 0.015849 0.487663
vt 0.312788 0.535743
vt 0.312788 0.513782
vt 0.576309 0.513783
vt 0.311067 0.037952
vt 0.311067 0.015849
vt 0.576309 0.015849
vt 0.015849 0.015849
vt 0.279369 0.015849
vt 0.279369 0.279369
vt 0.334748 0.566799
vt 0.576309 0.535743
vt 0.312788 0.460125
vt 0.334748 0.429069
vt 0.015849 0.465560
vt 0.037952 0.434301
vt 0.576309 0.037952
vt 0.554205 0.069211
vt 0.333170 0.069211
vt 0.037952 0.390094
vt 0.258987 0.390094
vt 0.806630 0.015849
vt 0.894470 0.015849
vt 0.894470 0.059769
vt 0.134126 0.756933
vt 0.123146 0.767913
vt 0.057265 0.767913
vt 0.806630 0.445525
vt 0.806630 0.401605
vt 0.855734 0.379645
vt 0.847469 0.740928
vt 0.891389 0.740929
vt 0.891389 0.828769
vt 0.855734 0.228410
vt 0.806630 0.206450
vt 0.806630 0.162530
vt 0.899654 0.228410
vt 0.855734 0.140570
vt 0.798365 0.762888
vt 0.847469 0.828769
vt 0.855734 0.467485
vt 0.899654 0.379645
vt 0.806630 0.059769
vt 0.872510 0.108873
vt 0.026829 0.798350
vt 0.073735 0.814820
vt 0.073735 0.847760
vt 0.046285 0.905647
vt 0.057265 0.894667
vt 0.123145 0.894667
vt 0.164562 0.875210
vt 0.153582 0.864230
vt 0.153582 0.798350
vt 0.015849 0.787370
vt 0.026829 0.864230
vt 0.106675 0.814820
vt 0.106675 0.847760
vt 0.850550 0.587022
vt 0.806630 0.587022
vt 0.806630 0.499182
vt 0.354205 0.854232
vt 0.420085 0.854232
vt 0.431065 0.865212
vt 0.850550 0.260107
vt 0.899654 0.282067
vt 0.899654 0.325988
vt 0.608006 0.899590
vt 0.608006 0.811750
vt 0.651926 0.811750
vt 0.891389 0.643351
vt 0.891389 0.687271
vt 0.842285 0.709231
vt 0.842285 0.621391
vt 0.798365 0.709231
vt 0.651926 0.899590
vt 0.701030 0.833710
vt 0.806630 0.260107
vt 0.850550 0.347948
vt 0.899654 0.565062
vt 0.850550 0.499182
vt 0.370675 0.774385
vt 0.370675 0.807325
vt 0.323768 0.823795
vt 0.420085 0.727478
vt 0.354205 0.727478
vt 0.343225 0.716498
vt 0.450521 0.823795
vt 0.450521 0.757915
vt 0.461501 0.746935
vt 0.323768 0.757915
vt 0.312788 0.834775
vt 0.403615 0.807325
vt 0.403615 0.774385
vt 0.619264 0.360402
vt 0.672059 0.307606
vt 0.691469 0.327016
vt 0.619264 0.254810
vt 0.617323 0.254810
vt 0.638674 0.233459
vt 0.763675 0.254810
vt 0.710880 0.307606
vt 0.691469 0.288196
vt 0.744265 0.379812
vt 0.638674 0.235400
vt 0.608006 0.245494
vt 0.629357 0.224142
vt 0.763675 0.360402
vt 0.765616 0.360402
vt 0.744265 0.381753
vt 0.744265 0.235400
vt 0.744265 0.233459
vt 0.765616 0.254810
vt 0.638674 0.379812
vt 0.638674 0.381753
vt 0.617323 0.360402
vt 0.774933 0.369719
vt 0.753582 0.391070
vt 0.629357 0.391070
vt 0.608006 0.369718
vt 0.753582 0.224142
vt 0.774933 0.245494
vt 0.763675 0.046517
vt 0.710880 0.099312
vt 0.691469 0.079902
vt 0.763675 0.152108
vt 0.765616 0.152108
vt 0.744265 0.173459
vt 0.619264 0.152108
vt 0.672059 0.099312
vt 0.691469 0.118722
vt 0.638674 0.027106
vt 0.744265 0.171518
vt 0.774933 0.161425
vt 0.753582 0.182776
vt 0.619264 0.046517
vt 0.617323 0.046517
vt 0.638674 0.025165
vt 0.638674 0.171518
vt 0.638674 0.173459
vt 0.617323 0.152108
vt 0.744265 0.027106
vt 0.744265 0.025165
vt 0.765616 0.046517
vt 0.608006 0.037200
vt 0.629357 0.015849
vt 0.753582 0.015849
vt 0.774933 0.037200
vt 0.629357 0.182776
vt 0.608006 0.161425
vt 0.691469 0.525640
vt 0.710880 0.506230
vt 0.763675 0.559026
vt 0.744265 0.432084
vt 0.765616 0.453435
vt 0.763675 0.453435
vt 0.691469 0.486820
vt 0.672059 0.506230
vt 0.619264 0.453435
vt 0.638674 0.578436
vt 0.744265 0.434025
vt 0.753582 0.422767
vt 0.774933 0.444118
vt 0.638674 0.580377
vt 0.617323 0.559026
vt 0.619264 0.559026
vt 0.617323 0.453435
vt 0.638674 0.432084
vt 0.638674 0.434025
vt 0.765616 0.559026
vt 0.744265 0.580377
vt 0.744265 0.578436
vt 0.629357 0.589694
vt 0.608006 0.568343
vt 0.774933 0.568343
vt 0.753582 0.589694
vt 0.608006 0.444118
vt 0.629357 0.422767
vt 0.105061 0.608573
vt 0.105061 0.636023
vt 0.030397 0.636023
vt 0.133884 0.712060
vt 0.103689 0.712060
vt 0.105061 0.710688
vt 0.132511 0.636023
vt 0.132511 0.608573
vt 0.207176 0.608573
vt 0.105061 0.533909
vt 0.132511 0.710688
vt 0.133884 0.725236
vt 0.103689 0.725236
vt 0.103689 0.532536
vt 0.133884 0.532536
vt 0.132511 0.533909
vt 0.208548 0.607201
vt 0.208548 0.637396
vt 0.207176 0.636023
vt 0.029025 0.637396
vt 0.029025 0.607201
vt 0.030397 0.608573
vt 0.103689 0.519360
vt 0.133884 0.519360
vt 0.015849 0.637396
vt 0.015849 0.607201
vt 0.221724 0.607201
vt 0.221724 0.637396
vt 0.554205 0.113418
vt 0.537628 0.160631
vt 0.349748 0.160631
vt 0.333170 0.113418
vt 0.554349 0.566799
vt 0.554349 0.610719
vt 0.334748 0.610719
vt 0.334748 0.385149
vt 0.554349 0.385149
vt 0.493263 0.170323
vt 0.054530 0.342881
vt 0.242409 0.342880
vt 0.351218 0.338242
vt 0.537879 0.338242
vt 0.537879 0.657626
vt 0.351218 0.657626
vt 0.365217 0.324243
vt 0.365217 0.311067
vt 0.523879 0.311066
vt 0.098895 0.333189
vt 0.523879 0.324243
vt 0.523879 0.671625
vt 0.365217 0.671625
vt 0.766667 0.780053
vt 0.608006 0.780053
vt 0.608006 0.621391
vt 0.523879 0.684801
vt 0.365217 0.684801
vt 0.496673 0.170201
vt 0.531971 0.176003
vt 0.364530 0.192445
vt 0.095484 0.333311
vt 0.060187 0.327509
vt 0.227627 0.311066
vt 0.236623 0.984151
vt 0.214662 0.984151
vt 0.214662 0.976596
vt 0.531841 0.231698
vt 0.509881 0.231698
vt 0.509881 0.224142
vt 0.533562 0.943717
vt 0.511602 0.943717
vt 0.511602 0.936161
vt 0.828780 0.938842
vt 0.806820 0.938842
vt 0.806820 0.931287
vt 0.236623 0.944899
vt 0.214662 0.944899
vt 0.214662 0.937344
vt 0.953501 0.899590
vt 0.931541 0.899590
vt 0.931541 0.892035
vt 0.828780 0.978095
vt 0.806820 0.978095
vt 0.806820 0.970539
vt 0.533562 0.982969
vt 0.511602 0.982969
vt 0.511602 0.975414
vt 0.531841 0.270950
vt 0.509881 0.270950
vt 0.509881 0.263395
vt 0.533562 0.904464
vt 0.511602 0.904464
vt 0.511602 0.896909
vt 0.480545 0.904464
vt 0.480545 0.896909
vt 0.478824 0.270950
vt 0.478824 0.263395
vt 0.480546 0.982969
vt 0.480546 0.975414
vt 0.775764 0.978095
vt 0.775764 0.970539
vt 0.900485 0.899590
vt 0.900485 0.892035
vt 0.183606 0.944899
vt 0.183606 0.937344
vt 0.775764 0.938842
vt 0.775764 0.931287
vt 0.480546 0.943717
vt 0.480546 0.936161
vt 0.478824 0.231698
vt 0.478824 0.224142
vt 0.183606 0.984151
vt 0.183606 0.976596
vt 0.037809 0.976596
vt 0.068865 0.976596
vt 0.068865 0.984151
vt 0.333027 0.224143
vt 0.364083 0.224142
vt 0.364083 0.231698
vt 0.312788 0.936161
vt 0.334748 0.936161
vt 0.334748 0.943717
vt 0.311067 0.224143
vt 0.333027 0.231698
vt 0.015849 0.976596
vt 0.037809 0.984151
vt 0.608006 0.931287
vt 0.629966 0.931287
vt 0.629966 0.938842
vt 0.015849 0.937344
vt 0.037809 0.937344
vt 0.037809 0.944899
vt 0.732727 0.892035
vt 0.754687 0.892035
vt 0.754687 0.899590
vt 0.608006 0.970539
vt 0.629966 0.970539
vt 0.629966 0.978095
vt 0.312788 0.975414
vt 0.334748 0.975414
vt 0.334748 0.982969
vt 0.311067 0.263395
vt 0.333027 0.263395
vt 0.333027 0.270950
vt 0.312788 0.896909
vt 0.334748 0.896909
vt 0.334748 0.904464
vt 0.365804 0.896909
vt 0.365804 0.904464
vt 0.364083 0.263395
vt 0.364083 0.270950
vt 0.365804 0.975414
vt 0.365804 0.982969
vt 0.661022 0.970539
vt 0.661022 0.978095
vt 0.785744 0.892035
vt 0.785744 0.899590
vt 0.068865 0.937344
vt 0.068865 0.944899
vt 0.661022 0.931287
vt 0.661022 0.938842
vt 0.365804 0.936161
vt 0.365804 0.943717
vt 0.253421 0.638898
vt 0.253421 0.594978
vt 0.275381 0.616938
vt 0.515159 0.760418
vt 0.493199 0.738458
vt 0.515159 0.716498
vt 0.253421 0.714515
vt 0.253421 0.670595
vt 0.275381 0.692555
vt 0.275381 0.563281
vt 0.253421 0.541320
vt 0.275381 0.519360
vt 0.015849 0.279369
vt 0.554349 0.429069
vt 0.258987 0.434301
vt 0.046285 0.756933
vt 0.899654 0.140570
vt 0.798364 0.806809
vt 0.899654 0.467485
vt 0.828590 0.108873
vt 0.134125 0.905647
vt 0.164562 0.787370
vt 0.015849 0.875210
vt 0.343224 0.865212
vt 0.798364 0.621391
vt 0.701030 0.877630
vt 0.806630 0.347948
vt 0.899654 0.521142
vt 0.431065 0.716498
vt 0.461502 0.834775
vt 0.312788 0.746935
vt 0.363839 0.174722
vt 0.375834 0.174919
vt 0.531331 0.168272
vt 0.527282 0.168652
vt 0.523273 0.168887
vt 0.519466 0.169118
vt 0.515811 0.169319
vt 0.512310 0.169498
vt 0.508962 0.169663
vt 0.505764 0.169815
vt 0.502713 0.169957
vt 0.499748 0.170088
vt 0.489313 0.170468
vt 0.484693 0.170641
vt 0.479208 0.170849
vt 0.472561 0.171104
vt 0.464263 0.171426
vt 0.453455 0.171849
vt 0.438489 0.172437
vt 0.415776 0.173333
vt 0.228319 0.328790
vt 0.216323 0.328593
vt 0.060826 0.335240
vt 0.064875 0.334860
vt 0.068884 0.334625
vt 0.072692 0.334394
vt 0.076346 0.334193
vt 0.079847 0.334014
vt 0.083195 0.333849
vt 0.086393 0.333697
vt 0.089444 0.333555
vt 0.092409 0.333424
vt 0.102844 0.333044
vt 0.107464 0.332871
vt 0.112949 0.332663
vt 0.119596 0.332407
vt 0.127894 0.332085
vt 0.138702 0.331663
vt 0.153668 0.331075
vt 0.176381 0.330179
vt 0.766667 0.621391
vt 0.236623 0.976596
vt 0.531841 0.224142
vt 0.533562 0.936161
vt 0.828780 0.931287
vt 0.236623 0.937344
vt 0.953501 0.892035
vt 0.828780 0.970539
vt 0.533562 0.975414
vt 0.531841 0.263395
vt 0.533562 0.896909
vt 0.312788 0.943717
vt 0.311067 0.231698
vt 0.015849 0.984151
vt 0.608006 0.938842
vt 0.015849 0.944899
vt 0.732727 0.899590
vt 0.608006 0.978095
vt 0.312788 0.982969
vt 0.311067 0.270950
vt 0.312788 0.904464
vn -1.0000 0.0000 0.0000
vn 0.0000 0.0000 -1.0000
vn 1.0000 0.0000 0.0000
vn 0.0000 0.0000 1.0000
vn 0.0000 -1.0000 0.0000
vn 0.7071 0.7071 -0.0000
vn -0.7071 0.7071 -0.0000
vn 0.0000 0.7071 -0.7071
vn 0.0000 0.7071 0.7071
vn -0.4472 0.0000 0.8944
vn -0.4472 0.8944 -0.0000
vn 0.0000 1.0000 -0.0000
vn -0.4472 -0.8944 0.0000
vn -0.4472 -0.0000 -0.8944
vn 0.3511 -0.0000 -0.9363
vn 0.3511 0.0000 0.9363
vn 0.3511 0.9363 -0.0000
vn 0.3511 -0.9363 0.0000
vn 0.4472 0.0000 0.8944
vn 0.4472 0.8944 -0.0000
vn 0.4472 -0.8944 0.0000
vn 0.4472 -0.0000 -0.8944
vn -0.3511 0.0000 -0.9363
vn -0.3511 0.0000 0.9363
vn -0.3511 0.9363 -0.0000
vn -0.3511 -0.9363 0.0000
vn 0.0000 0.3511 0.9363
vn 0.0000 0.3511 -0.9363
vn -0.9363 0.3511 -0.0000
vn 0.9363 0.3511 -0.0000
usemtl Default_OBJ
s 1
f 1/1/1 2/2/1 3/3/1
f 4/4/2 5/5/2 2/6/2
f 6/7/3 7/8/3 5/9/3
f 8/10/4 3/11/4 7/12/4
f 2/13/5 5/14/5 7/15/5
f 9/16/6 6/7/6 4/17/6
f 1/1/7 8/18/7 10/19/7
f 4/4/8 1/20/8 11/21/8
f 6/22/9 9/23/9 10/24/9
f 11/21/2 12/25/2 13/26/2
f 14/27/2 15/28/2 16/29/2
f 15/30/3 17/31/3 18/32/3
f 19/33/10 20/34/10 21/35/10
f 16/36/5 15/37/5 22/38/5
f 23/39/11 24/40/11 19/41/11
f 14/42/12 23/39/12 25/43/12
f 26/44/13 16/36/13 21/45/13
f 25/46/4 21/35/4 22/47/4
f 23/48/14 16/29/14 26/49/14
f 18/50/15 27/51/15 28/52/15
f 29/53/3 30/54/3 31/55/3
f 14/56/3 31/57/3 17/58/3
f 22/59/3 18/50/3 30/60/3
f 28/52/3 27/51/3 32/61/3
f 31/57/16 33/62/16 32/61/16
f 17/31/17 32/61/17 27/51/17
f 30/54/18 28/52/18 33/62/18
f 34/63/2 35/64/2 36/65/2
f 37/66/1 38/67/1 35/68/1
f 39/69/19 40/70/19 41/71/19
f 42/72/5 35/73/5 34/74/5
f 41/75/20 43/76/20 44/77/20
f 45/78/12 44/77/12 36/79/12
f 39/80/21 34/74/21 46/81/21
f 42/82/4 39/69/4 45/83/4
f 46/84/22 34/63/22 44/85/22
f 47/86/23 48/87/23 37/88/23
f 49/89/1 50/90/1 51/91/1
f 38/92/1 49/93/1 36/94/1
f 50/95/1 37/88/1 42/96/1
f 52/97/1 48/87/1 47/86/1
f 52/97/24 53/98/24 49/93/24
f 48/87/25 52/97/25 38/67/25
f 53/98/26 47/86/26 50/90/26
f 54/99/3 55/100/3 56/101/3
f 54/102/2 57/103/2 58/104/2
f 59/105/1 60/106/1 61/107/1
f 62/108/12 56/101/12 60/106/12
f 63/109/5 61/107/5 55/100/5
f 56/101/2 55/100/2 61/107/2
f 57/103/5 64/110/5 65/111/5
f 59/112/2 66/113/2 67/114/2
f 63/115/2 58/116/2 66/117/2
f 62/118/2 67/119/2 57/120/2
f 66/113/12 68/121/12 69/122/12
f 67/119/3 69/123/3 64/124/3
f 58/116/1 65/125/1 68/126/1
f 70/127/3 71/128/3 72/129/3
f 70/130/2 73/131/2 74/132/2
f 75/133/1 76/134/1 77/135/1
f 78/136/12 72/129/12 76/134/12
f 79/137/5 77/135/5 71/128/5
f 72/129/2 71/128/2 77/135/2
f 73/131/5 80/138/5 81/139/5
f 75/140/2 82/141/2 83/142/2
f 79/143/2 74/144/2 82/145/2
f 78/146/2 83/147/2 73/148/2
f 82/141/12 84/149/12 85/150/12
f 83/147/3 85/151/3 80/152/3
f 74/144/1 81/153/1 84/154/1
f 86/155/3 87/156/3 88/157/3
f 89/158/4 90/159/4 88/160/4
f 91/161/1 92/162/1 93/163/1
f 92/162/12 86/155/12 94/164/12
f 87/156/5 91/161/5 95/165/5
f 91/161/4 87/156/4 86/155/4
f 96/166/5 97/167/5 90/159/5
f 98/168/4 99/169/4 93/170/4
f 99/171/4 89/172/4 95/173/4
f 90/174/4 98/175/4 94/176/4
f 100/177/12 101/178/12 99/169/12
f 97/179/3 100/180/3 98/175/3
f 101/181/1 96/182/1 89/172/1
f 102/183/3 103/184/3 104/185/3
f 105/186/4 106/187/4 104/188/4
f 107/189/1 108/190/1 109/191/1
f 108/190/12 102/183/12 110/192/12
f 103/184/5 107/189/5 111/193/5
f 107/189/4 103/184/4 102/183/4
f 112/194/5 113/195/5 106/187/5
f 114/196/4 115/197/4 109/198/4
f 115/199/4 105/200/4 111/201/4
f 106/202/4 114/203/4 110/204/4
f 116/205/12 117/206/12 115/197/12
f 113/207/3 116/208/3 114/203/3
f 117/209/1 112/210/1 105/200/1
f 118/211/27 119/212/27 120/213/27
f 9/23/4 118/211/4 121/214/4
f 122/215/3 13/216/3 118/217/3
f 10/19/1 121/218/1 12/219/1
f 119/212/12 123/220/12 120/213/12
f 12/25/28 124/221/28 125/222/28
f 121/218/29 120/223/29 124/224/29
f 13/216/30 125/225/30 119/226/30
f 126/227/3 127/228/3 128/229/3
f 124/221/12 129/230/12 125/222/12
f 120/223/12 126/227/12 130/231/12
f 125/225/12 131/232/12 132/233/12
f 133/234/12 128/235/12 127/236/12
f 131/232/1 133/237/1 134/238/1
f 135/239/2 134/240/2 127/241/2
f 136/242/4 128/243/4 133/244/4
f 137/245/2 138/246/2 139/247/2
f 140/248/2 141/249/2 142/250/2
f 143/251/2 144/252/2 145/253/2
f 146/254/2 147/255/2 148/256/2
f 149/257/2 150/258/2 151/259/2
f 129/260/2 152/261/2 153/262/2
f 154/263/2 155/264/2 156/265/2
f 157/266/2 158/267/2 159/268/2
f 160/269/2 161/270/2 162/271/2
f 163/272/2 164/273/2 165/274/2
f 164/273/8 166/275/8 167/276/8
f 161/270/8 168/277/8 169/278/8
f 158/267/8 170/279/8 171/280/8
f 155/264/8 172/281/8 173/282/8
f 152/261/8 174/283/8 175/284/8
f 150/258/8 176/285/8 177/286/8
f 147/255/8 178/287/8 179/288/8
f 144/252/8 180/289/8 181/290/8
f 141/249/8 182/291/8 183/292/8
f 138/246/8 184/293/8 185/294/8
f 186/295/9 187/296/9 188/297/9
f 189/298/9 190/299/9 191/300/9
f 192/301/4 193/302/4 194/303/4
f 195/304/4 189/298/4 196/305/4
f 197/306/4 186/295/4 198/307/4
f 199/308/4 200/309/4 201/310/4
f 123/311/4 202/312/4 203/313/4
f 204/314/4 205/315/4 206/316/4
f 207/317/4 208/318/4 209/319/4
f 210/320/4 211/321/4 212/322/4
f 213/323/4 214/324/4 215/325/4
f 216/326/4 217/327/4 218/328/4
f 217/327/9 219/329/9 220/330/9
f 214/324/9 221/331/9 222/332/9
f 211/321/9 223/333/9 224/334/9
f 208/318/9 225/335/9 226/336/9
f 205/315/9 227/337/9 228/338/9
f 202/312/9 229/339/9 230/340/9
f 200/309/9 231/341/9 232/342/9
f 193/302/9 233/343/9 234/344/9
f 167/276/12 166/275/12 220/330/12
f 169/278/12 168/277/12 222/332/12
f 171/280/12 170/279/12 224/334/12
f 173/282/12 172/281/12 226/336/12
f 175/284/12 174/283/12 228/338/12
f 177/286/12 176/285/12 230/340/12
f 185/294/12 184/293/12 188/297/12
f 183/292/12 182/291/12 191/300/12
f 181/290/12 180/289/12 234/344/12
f 179/288/12 178/287/12 232/342/12
f 235/345/2 236/346/2 237/347/2
f 238/348/4 239/349/4 240/350/4
f 241/351/2 242/352/2 243/353/2
f 244/354/4 245/355/4 246/356/4
f 8/18/1 1/1/1 3/3/1
f 1/20/2 4/4/2 2/6/2
f 4/17/3 6/7/3 5/9/3
f 6/22/4 8/10/4 7/12/4
f 3/357/5 2/13/5 7/15/5
f 122/215/6 9/16/6 4/17/6
f 11/358/7 1/1/7 10/19/7
f 122/359/8 4/4/8 11/21/8
f 8/10/9 6/22/9 10/24/9
f 122/359/2 11/21/2 13/26/2
f 23/48/2 14/27/2 16/29/2
f 22/360/3 15/30/3 18/32/3
f 25/46/10 19/33/10 21/35/10
f 21/45/5 16/36/5 22/38/5
f 25/43/11 23/39/11 19/41/11
f 29/361/12 14/42/12 25/43/12
f 20/362/13 26/44/13 21/45/13
f 29/363/4 25/46/4 22/47/4
f 24/364/14 23/48/14 26/49/14
f 30/60/15 18/50/15 28/52/15
f 14/365/3 29/53/3 31/55/3
f 15/366/3 14/56/3 17/58/3
f 29/367/3 22/59/3 30/60/3
f 33/62/3 28/52/3 32/61/3
f 17/58/16 31/57/16 32/61/16
f 18/32/17 17/31/17 27/51/17
f 31/55/18 30/54/18 33/62/18
f 44/85/2 34/63/2 36/65/2
f 42/368/1 37/66/1 35/68/1
f 45/83/19 39/69/19 41/71/19
f 39/80/5 42/72/5 34/74/5
f 45/78/20 41/75/20 44/77/20
f 51/369/12 45/78/12 36/79/12
f 40/370/21 39/80/21 46/81/21
f 51/371/4 42/82/4 45/83/4
f 43/372/22 46/84/22 44/85/22
f 50/95/23 47/86/23 37/88/23
f 36/373/1 49/89/1 51/91/1
f 35/374/1 38/92/1 36/94/1
f 51/375/1 50/95/1 42/96/1
f 53/98/1 52/97/1 47/86/1
f 38/92/24 52/97/24 49/93/24
f 37/66/25 48/87/25 38/67/25
f 49/89/26 53/98/26 50/90/26
f 62/118/3 54/99/3 56/101/3
f 63/109/2 54/102/2 58/104/2
f 63/115/1 59/105/1 61/107/1
f 59/112/12 62/108/12 60/106/12
f 54/102/5 63/109/5 55/100/5
f 60/106/2 56/101/2 61/107/2
f 58/104/5 57/103/5 65/111/5
f 62/108/2 59/112/2 67/114/2
f 59/105/2 63/115/2 66/117/2
f 54/99/2 62/118/2 57/120/2
f 67/114/12 66/113/12 69/122/12
f 57/120/3 67/119/3 64/124/3
f 66/117/1 58/116/1 68/126/1
f 78/146/3 70/127/3 72/129/3
f 79/137/2 70/130/2 74/132/2
f 79/143/1 75/133/1 77/135/1
f 75/140/12 78/136/12 76/134/12
f 70/130/5 79/137/5 71/128/5
f 76/134/2 72/129/2 77/135/2
f 74/132/5 73/131/5 81/139/5
f 78/136/2 75/140/2 83/142/2
f 75/133/2 79/143/2 82/145/2
f 70/127/2 78/146/2 73/148/2
f 83/142/12 82/141/12 85/150/12
f 73/148/3 83/147/3 80/152/3
f 82/145/1 74/144/1 84/154/1
f 94/176/3 86/155/3 88/157/3
f 95/165/4 89/158/4 88/160/4
f 95/173/1 91/161/1 93/163/1
f 93/170/12 92/162/12 94/164/12
f 88/160/5 87/156/5 95/165/5
f 92/162/4 91/161/4 86/155/4
f 89/158/5 96/166/5 90/159/5
f 94/164/4 98/168/4 93/170/4
f 93/163/4 99/171/4 95/173/4
f 88/157/4 90/174/4 94/176/4
f 98/168/12 100/177/12 99/169/12
f 90/174/3 97/179/3 98/175/3
f 99/171/1 101/181/1 89/172/1
f 110/204/3 102/183/3 104/185/3
f 111/193/4 105/186/4 104/188/4
f 111/201/1 107/189/1 109/191/1
f 109/198/12 108/190/12 110/192/12
f 104/188/5 103/184/5 111/193/5
f 108/190/4 107/189/4 102/183/4
f 105/186/5 112/194/5 106/187/5
f 110/192/4 114/196/4 109/198/4
f 109/191/4 115/199/4 111/201/4
f 104/185/4 106/202/4 110/204/4
f 114/196/12 116/205/12 115/197/12
f 106/202/3 113/207/3 114/203/3
f 115/199/1 117/209/1 105/200/1
f 121/214/27 118/211/27 120/213/27
f 10/24/4 9/23/4 121/214/4
f 9/16/3 122/215/3 118/217/3
f 11/358/1 10/19/1 12/219/1
f 126/376/12 120/213/12 247/377/12
f 119/212/12 132/378/12 216/379/12
f 216/379/12 248/380/12 119/212/12
f 213/381/12 249/382/12 119/212/12
f 210/383/12 250/384/12 119/212/12
f 207/385/12 251/386/12 119/212/12
f 204/387/12 135/239/12 119/212/12
f 123/220/12 252/388/12 120/213/12
f 199/389/12 253/390/12 120/213/12
f 192/391/12 254/392/12 120/213/12
f 195/393/12 255/394/12 120/213/12
f 197/395/12 247/377/12 120/213/12
f 119/212/12 248/380/12 213/381/12
f 197/395/12 120/213/12 255/394/12
f 254/392/12 195/393/12 120/213/12
f 252/388/12 199/389/12 120/213/12
f 251/386/12 204/387/12 119/212/12
f 249/382/12 210/383/12 119/212/12
f 192/391/12 120/213/12 253/390/12
f 119/212/12 250/384/12 207/385/12
f 135/239/12 123/220/12 119/212/12
f 13/26/28 12/25/28 125/222/28
f 12/219/29 121/218/29 124/224/29
f 118/217/30 13/216/30 119/226/30
f 130/231/3 126/227/3 128/229/3
f 131/396/12 125/222/12 256/397/12
f 124/221/12 130/398/12 137/399/12
f 137/399/12 257/400/12 124/221/12
f 140/401/12 258/402/12 124/221/12
f 143/403/12 259/404/12 124/221/12
f 146/405/12 260/406/12 124/221/12
f 149/407/12 136/242/12 124/221/12
f 129/230/12 261/408/12 125/222/12
f 154/409/12 262/410/12 125/222/12
f 157/411/12 263/412/12 125/222/12
f 160/413/12 264/414/12 125/222/12
f 163/415/12 256/397/12 125/222/12
f 124/221/12 257/400/12 140/401/12
f 163/415/12 125/222/12 264/414/12
f 263/412/12 160/413/12 125/222/12
f 261/408/12 154/409/12 125/222/12
f 260/406/12 149/407/12 124/221/12
f 258/402/12 143/403/12 124/221/12
f 157/411/12 125/222/12 262/410/12
f 124/221/12 259/404/12 146/405/12
f 136/242/12 129/230/12 124/221/12
f 124/224/12 120/223/12 130/231/12
f 119/226/12 125/225/12 132/233/12
f 134/416/12 133/234/12 127/236/12
f 132/233/1 131/232/1 134/238/1
f 127/241/2 126/376/2 247/377/2
f 247/377/2 197/395/2 127/241/2
f 255/394/2 195/393/2 127/241/2
f 254/392/2 192/391/2 127/241/2
f 253/390/2 199/389/2 127/241/2
f 252/388/2 123/220/2 127/241/2
f 135/239/2 204/387/2 134/240/2
f 251/386/2 207/385/2 134/240/2
f 250/384/2 210/383/2 134/240/2
f 249/382/2 213/381/2 134/240/2
f 248/380/2 216/379/2 134/240/2
f 132/378/2 134/240/2 216/379/2
f 127/241/2 197/395/2 255/394/2
f 195/393/2 254/392/2 127/241/2
f 199/389/2 252/388/2 127/241/2
f 204/387/2 251/386/2 134/240/2
f 210/383/2 249/382/2 134/240/2
f 248/380/2 134/240/2 213/381/2
f 127/241/2 192/391/2 253/390/2
f 123/220/2 135/239/2 127/241/2
f 250/384/2 134/240/2 207/385/2
f 133/244/4 131/396/4 256/397/4
f 256/397/4 163/415/4 133/244/4
f 264/414/4 160/413/4 133/244/4
f 263/412/4 157/411/4 133/244/4
f 262/410/4 154/409/4 133/244/4
f 261/408/4 129/230/4 133/244/4
f 136/242/4 149/407/4 128/243/4
f 260/406/4 146/405/4 128/243/4
f 259/404/4 143/403/4 128/243/4
f 258/402/4 140/401/4 128/243/4
f 257/400/4 137/399/4 128/243/4
f 130/398/4 128/243/4 137/399/4
f 133/244/4 163/415/4 264/414/4
f 160/413/4 263/412/4 133/244/4
f 154/409/4 261/408/4 133/244/4
f 149/407/4 260/406/4 128/243/4
f 143/403/4 258/402/4 128/243/4
f 257/400/4 128/243/4 140/401/4
f 133/244/4 157/411/4 262/410/4
f 129/230/4 136/242/4 133/244/4
f 259/404/4 128/243/4 146/405/4
f 257/417/2 137/245/2 139/247/2
f 258/418/2 140/248/2 142/250/2
f 259/419/2 143/251/2 145/253/2
f 260/420/2 146/254/2 148/256/2
f 136/421/2 149/257/2 151/259/2
f 261/422/2 129/260/2 153/262/2
f 262/423/2 154/263/2 156/265/2
f 263/424/2 157/266/2 159/268/2
f 264/425/2 160/269/2 162/271/2
f 256/426/2 163/272/2 165/274/2
f 165/274/8 164/273/8 167/276/8
f 162/271/8 161/270/8 169/278/8
f 159/268/8 158/267/8 171/280/8
f 156/265/8 155/264/8 173/282/8
f 153/262/8 152/261/8 175/284/8
f 151/259/8 150/258/8 177/286/8
f 148/256/8 147/255/8 179/288/8
f 145/253/8 144/252/8 181/290/8
f 142/250/8 141/249/8 183/292/8
f 139/247/8 138/246/8 185/294/8
f 198/307/9 186/295/9 188/297/9
f 196/305/9 189/298/9 191/300/9
f 254/427/4 192/301/4 194/303/4
f 255/428/4 195/304/4 196/305/4
f 247/429/4 197/306/4 198/307/4
f 253/430/4 199/308/4 201/310/4
f 252/431/4 123/311/4 203/313/4
f 135/432/4 204/314/4 206/316/4
f 251/433/4 207/317/4 209/319/4
f 250/434/4 210/320/4 212/322/4
f 249/435/4 213/323/4 215/325/4
f 248/436/4 216/326/4 218/328/4
f 218/328/9 217/327/9 220/330/9
f 215/325/9 214/324/9 222/332/9
f 212/322/9 211/321/9 224/334/9
f 209/319/9 208/318/9 226/336/9
f 206/316/9 205/315/9 228/338/9
f 203/313/9 202/312/9 230/340/9
f 201/310/9 200/309/9 232/342/9
f 194/303/9 193/302/9 234/344/9
f 219/329/12 167/276/12 220/330/12
f 221/331/12 169/278/12 222/332/12
f 223/333/12 171/280/12 224/334/12
f 225/335/12 173/282/12 226/336/12
f 227/337/12 175/284/12 228/338/12
f 229/339/12 177/286/12 230/340/12
f 187/296/12 185/294/12 188/297/12
f 190/299/12 183/292/12 191/300/12
f 233/343/12 181/290/12 234/344/12
f 231/341/12 179/288/12 232/342/12
